<svg width="16" height="16" viewBox="0 0 16 16" fill="none" xmlns="http://www.w3.org/2000/svg">
<path d="M10.0866 12.7067H4.7533C4.47996 12.7067 4.2533 12.48 4.2533 12.2067C4.2533 11.9334 4.47996 11.7067 4.7533 11.7067H10.0866C11.6466 11.7067 12.92 10.4334 12.92 8.87337C12.92 7.31337 11.6466 6.04004 10.0866 6.04004H2.7533C2.47996 6.04004 2.2533 5.81337 2.2533 5.54004C2.2533 5.26671 2.47996 5.04004 2.7533 5.04004H10.0866C12.2 5.04004 13.92 6.76004 13.92 8.87337C13.92 10.9867 12.2 12.7067 10.0866 12.7067Z" fill="#393D41"/>
<path d="M4.28666 7.70671C4.16 7.70671 4.03333 7.66004 3.93333 7.56004L2.22667 5.85338C2.03333 5.66004 2.03333 5.34004 2.22667 5.14671L3.93333 3.44004C4.12667 3.24671 4.44667 3.24671 4.64 3.44004C4.83333 3.63338 4.83333 3.95338 4.64 4.14671L3.28666 5.50004L4.64 6.85338C4.83333 7.04671 4.83333 7.36671 4.64 7.56004C4.54667 7.66004 4.41333 7.70671 4.28666 7.70671Z" fill="#393D41"/>
</svg>
